<svg width="40" height="46" viewBox="0 0 40 46" fill="none" xmlns="http://www.w3.org/2000/svg">
<path d="M5.85786 11.8579C3.94184 13.7739 2.43515 16.0593 1.42922 18.5753C0.423301 21.0913 -0.0608658 23.7855 0.00611052 26.4944C0.0730868 29.2032 0.689809 31.8702 1.81884 34.3334C2.94788 36.7966 4.56568 39.0048 6.57405 40.8238C8.58242 42.6427 10.9395 44.0347 13.5021 44.915C16.0648 45.7954 18.7796 46.1458 21.4818 45.945C24.1841 45.7443 26.8173 44.9965 29.2217 43.7471C31.6262 42.4977 33.7516 40.7728 35.4692 38.677L32.8394 36.5219C31.4139 38.2614 29.6497 39.6931 27.654 40.7301C25.6584 41.7671 23.4728 42.3877 21.2299 42.5544C18.9871 42.721 16.7338 42.4302 14.6068 41.6995C12.4798 40.9688 10.5234 39.8135 8.85646 38.3037C7.18951 36.794 5.84674 34.9612 4.90964 32.9167C3.97254 30.8722 3.46066 28.6586 3.40507 26.4103C3.34948 24.162 3.75134 21.9258 4.58626 19.8375C5.42117 17.7492 6.67173 15.8523 8.26203 14.262L5.85786 11.8579Z" fill="white"/>
<path fill-rule="evenodd" clip-rule="evenodd" d="M25.5445 2.10253C25.1927 2.4915 25.0003 2.97899 25 3.48211V4V8.22827V21.5393C23.5337 19.9819 21.3886 19 19 19C14.584 19 11 22.3563 11 26.5C11 30.6437 14.584 34 19 34C23.416 34 27 30.6437 27 26.5C27 26.2542 26.9874 26.0111 26.9627 25.7714H27V7.86541L37 6.05113V2.17582C36.9998 1.85384 36.9208 1.53592 36.7689 1.24494C36.6169 0.953972 36.3957 0.697201 36.1211 0.49313C35.8466 0.289059 35.5256 0.142769 35.1812 0.0647989C34.8368 -0.0131713 34.4777 -0.0208799 34.1296 0.0422281L26.9296 1.34851C26.3857 1.44712 25.8963 1.71356 25.5445 2.10253Z" fill="white"/>
<path d="M32.9961 33.4902C31.8422 35.4922 30.2414 37.2006 28.3186 38.482C26.3957 39.7635 24.2028 40.5834 21.9109 40.8778C19.619 41.1722 17.29 40.933 15.1058 40.1791C12.9215 39.4251 10.9409 38.1767 9.31859 36.5313C7.69626 34.8858 6.47602 32.8878 5.75306 30.693C5.0301 28.4983 4.82397 26.1662 5.15075 23.8787C5.47754 21.5912 6.3284 19.4101 7.63696 17.5056C8.94552 15.6011 10.6764 14.0246 12.6946 12.8992L14.4479 16.0434C12.9141 16.8987 11.5986 18.0968 10.6041 19.5442C9.60958 20.9917 8.96293 22.6493 8.71457 24.3878C8.46622 26.1263 8.62287 27.8987 9.17232 29.5667C9.72177 31.2347 10.6492 32.7532 11.8821 34.0038C13.1151 35.2543 14.6203 36.2031 16.2804 36.7761C17.9404 37.3491 19.7104 37.5308 21.4523 37.3071C23.1941 37.0834 24.8607 36.4603 26.3221 35.4864C27.7835 34.5124 29.0001 33.2141 29.877 31.6925L32.9961 33.4902Z" fill="white"/>
<path d="M26.104 33.9209C25.0252 34.7522 23.788 35.3544 22.4683 35.6906C21.1485 36.0268 19.774 36.0898 18.429 35.8758C17.084 35.6619 15.7968 35.1754 14.6465 34.4463C13.4962 33.7172 12.507 32.7608 11.7394 31.6358C10.9719 30.5108 10.4422 29.2409 10.1829 27.9039C9.92362 26.5669 9.94016 25.191 10.2315 23.8606C10.5229 22.5302 11.0829 21.2734 11.8773 20.1671C12.6717 19.0609 13.6837 18.1286 14.8512 17.4274L16.9107 20.8564C16.2102 21.2772 15.603 21.8365 15.1264 22.5003C14.6498 23.164 14.3137 23.9181 14.1389 24.7164C13.9641 25.5146 13.9542 26.3401 14.1097 27.1423C14.2653 27.9445 14.5831 28.7065 15.0436 29.3815C15.5042 30.0565 16.0977 30.6303 16.7879 31.0678C17.4781 31.5053 18.2504 31.7971 19.0574 31.9255C19.8644 32.0539 20.6891 32.0161 21.481 31.8144C22.2728 31.6127 23.0151 31.2513 23.6624 30.7526L26.104 33.9209Z" fill="white"/>
</svg>
