<svg width="20" height="20" viewBox="0 0 20 20" fill="none" xmlns="http://www.w3.org/2000/svg">
<path d="M6.2825 20C13.83 20 17.9587 12.3035 17.9587 5.64077C17.9587 5.42539 17.9587 5.20694 17.9513 4.99157C18.7551 4.27543 19.4488 3.38881 20 2.37325C19.2491 2.78069 18.4535 3.04922 17.6388 3.17013C18.4969 2.53884 19.1397 1.54555 19.4475 0.374893C18.6412 0.962744 17.7588 1.37541 16.8387 1.59483C16.2202 0.784138 15.4018 0.24708 14.5101 0.0668435C13.6185 -0.113393 12.7034 0.0732493 11.9067 0.597861C11.1099 1.12247 10.476 1.95578 10.1031 2.96869C9.73012 3.98161 9.63897 5.11761 9.84375 6.20074C8.21218 6.10005 6.61602 5.57841 5.1588 4.66965C3.70159 3.76089 2.41586 2.48531 1.385 0.925632C0.861675 2.03801 0.701967 3.35381 0.938308 4.60585C1.17465 5.85788 1.78932 6.95228 2.6575 7.66681C2.00692 7.63961 1.37065 7.42461 0.8 7.03915V7.10838C0.801122 8.27367 1.12913 9.40275 1.72859 10.3048C2.32805 11.2068 3.16218 11.8264 4.09 12.0589C3.73783 12.1783 3.37404 12.2378 3.00875 12.2358C2.75123 12.2368 2.49423 12.2074 2.24125 12.1481C2.50348 13.1512 3.01409 14.0283 3.70156 14.6564C4.38903 15.2845 5.21892 15.6323 6.075 15.651C4.62069 17.0568 2.82425 17.8192 0.975 17.8155C0.649151 17.8172 0.323529 17.7941 0 17.7463C1.87689 19.2189 4.05662 20.0008 6.2825 20Z" fill="#6B6B6B"/>
</svg>
